<svg id="Layer_1" data-name="Layer 1" xmlns="http://www.w3.org/2000/svg" viewBox="0 0 465.05 404.29"><defs><style>.cls-1{fill:#fff;}</style></defs><path class="cls-1" d="M204.84,346.92c0,17.8,7.47,28.76,13.66,34.92a45.36,45.36,0,0,0,62,.7C292.72,371.12,294,356,294.78,346.92c2.63-32.38-17-57.17-23.79-65L249.86,314.3a84.76,84.76,0,0,1,10.59,22.2c2.6,8.46,4.29,14.51,1.21,20.36-.32.62-4.45,7.38-11.85,7.38s-11.66-6.76-12-7.38c-3.1-5.88-1.37-12,1.16-20.19a82.06,82.06,0,0,1,10.87-22.37L271,281.88q4.93-6.18,10.53-12.33c29.12-31.91,62.73-52,92.49-64.93V168.25C343.54,179.5,305.35,198.61,270.22,232a281.09,281.09,0,0,0-20.36,21.49,287.6,287.6,0,0,0-20.41-21.42c-35.15-33.28-73.25-52.51-103.84-63.92v36.36c29.75,12.9,63.38,33,92.49,65q5.6,6.15,10.53,12.36C213.29,305.93,204.84,329,204.84,346.92Z" transform="translate(-17.28 -47.4)"/><path class="cls-1" d="M411,387.52c46.69-53.21,71.36-128.64,71.36-217.92v-17H465a271.77,271.77,0,0,0-91,15.68v36.37a237.64,237.64,0,0,1,73.33-17.41c-3.74,94-37.75,167.6-96.43,208.68V169.6c0-18.28-8.55-35.4-22.91-45.7-8-5.68-16.51-8.56-25.45-8.56h-1.87V47.4H198.94v67.93h-1.87a43,43,0,0,0-25.36,8.56,56.11,56.11,0,0,0-23,45.7v45.7h-.39c.09.1.29.1.39.19v180.4c-58.59-41.08-92.6-114.68-96.33-208.68a241.76,241.76,0,0,1,73.23,17.31V168.16a271.69,271.69,0,0,0-91-15.59H17.28v17c0,89.28,24.68,164.62,71.37,217.92,18.38,20.78,39.42,37.71,62.71,50.12a199.47,199.47,0,0,0,25.36,11.55l6.79,2.5V169.6c0-7.5,3.24-14.33,8.65-18.28,2-1.35,3.54-2,4.91-2h36.67V81.38H266V149.3h36.57a8.92,8.92,0,0,1,4.91,2c5.51,4,8.75,10.78,8.75,18.28V451.69l6.68-2.5a200.1,200.1,0,0,0,25.46-11.55A224.93,224.93,0,0,0,411,387.52Z" transform="translate(-17.28 -47.4)"/></svg>