<svg id="Layer_1" data-name="Layer 1" xmlns="http://www.w3.org/2000/svg" viewBox="0 0 499.4 431.33"><defs><style>.cls-1{fill:#f5fafc;}</style></defs><path class="cls-1" d="M422.76,364.44c50.29-57.31,76.87-138.61,76.87-235.14V114.77H484.8a293.41,293.41,0,0,0-98,16.88c-8.29,3.06-16.68,6.53-24.87,10.28l-5.74,2.63V129.3c0-18.7-8.71-36.11-23.3-46.58-8-5.69-16.55-8.58-25.42-8.58h-6.09V0H198.46V74.14h-6.08a42.68,42.68,0,0,0-25.31,8.57,57.3,57.3,0,0,0-23.42,46.59v15.27l-5.75-2.66c-8.18-3.77-16.56-7.27-24.93-10.39a293.11,293.11,0,0,0-97.92-16.75H.22V129.3C.22,225.72,26.81,307,77.1,364.44,97,387,119.65,405.06,144.4,418.24a211,211,0,0,0,27.17,12.37l2,.72V195.84l6.49,4.9a279.1,279.1,0,0,1,38.3,34.87c4,4.39,7.92,9,11.67,13.7l1.8,2.26L230.22,254c-16.33,25.62-25.32,50.06-25.32,68.81,0,17.85,7.46,29,13.72,35.24a45.46,45.46,0,0,0,62,.68c12.3-11.5,13.56-27,14.31-36.25,2.52-31.08-14.57-56-25-68l-2.2-2.54,2.1-2.63c3.73-4.67,7.66-9.26,11.66-13.65A282.17,282.17,0,0,1,320,200.75l6.49-4.89V431.31l1.82-.69a214.51,214.51,0,0,0,27.29-12.38A241.3,241.3,0,0,0,422.76,364.44ZM356.2,177.34l2.13-1.15c8.18-4.42,16.77-8.59,25.52-12.38a263.07,263.07,0,0,1,81.34-19.33l4.52-.33-.18,4.53c-4.11,103.48-42.09,185.48-106.95,230.88L356.2,384ZM143.65,384l-6.38-4.47C72.48,334.13,34.53,252.13,30.42,148.68l-.18-4.55,4.54.35a269.17,269.17,0,0,1,81.14,19.18c8.82,3.83,17.41,8,25.6,12.42l2.13,1.15Zm122.8-48.48c-.06.1-5.5,10.21-16.52,10.21s-16.6-10.1-16.66-10.2c-4.26-8.1-1.72-16.37,1-25.13a94.3,94.3,0,0,1,12.4-25.5l3.39-5,3.32,5a96.57,96.57,0,0,1,12.06,25.28C268.13,319.1,270.7,327.47,266.45,335.55Zm60-174.69-1.91,1.19A311.28,311.28,0,0,0,275,200.34a307.35,307.35,0,0,0-21.93,23.14l-3.07,3.6-3.08-3.59a311.23,311.23,0,0,0-22-23.07,315.53,315.53,0,0,0-49.5-38.23l-1.9-1.19V129.3c0-9.46,4.15-18.14,11.1-23.22,3-2,5.44-3,7.76-3h36V29h43.28V103.1h35.86a13.55,13.55,0,0,1,7.73,3c7,5,11.23,13.72,11.23,23.23Z" transform="translate(-0.22 0)"/></svg>